<svg xmlns="http://www.w3.org/2000/svg" xmlns:svg="http://www.w3.org/2000/svg" xmlns:xlink="http://www.w3.org/1999/xlink" version="1.0" height="822.6232291071166pt" width="730pt" viewBox="385.00000000000006 124.37677089288354 738 828.6232291071166" ><defs><style type="text/css">
            @font-face {
                font-family: 'lt_regular';
                src: url('https://app.creately.com/diagram/assets/fonts/lato/lt-regular-webfont.woff2') format('woff2'),
                    url('https://app.creately.com/diagram/assets/fonts/lato/lt-regular-webfont.woff') format('woff');
                font-weight: normal;
                font-style: normal;
            }
            @font-face {
                font-family: 'noto_regular';
                src: url('https://app.creately.com/diagram/assets/fonts/noto/noto-regular.woff') format('woff'),
                     url('https://app.creately.com/diagram/assets/fonts/noto/noto-regular.woff2') format('woff2');
                font-weight: normal;
                font-style: normal;
            }
        p {
            margin: 0;
        }
        </style></defs><defs><style>
            span{ display: inline-block; }
        </style></defs><g id="zbdVQ60ifiO"><g transform="translate(660 127.37677089288354)"><rect x="0" y="0" width="180.00000000000034" height="29" fill="rgb(8,65,95)" stroke="#08415F" stroke-width="2" stroke-linecap="round" stroke-linejoin="round" stroke-dasharray="0 0"/><path d="M 90.00000000000017,29 L 90.00000000000017,822.6232291071166" fill="rgb(8,65,95)" stroke="#08415F" stroke-width="2" stroke-linecap="round" stroke-linejoin="round" stroke-dasharray="3 3"/><rect x="0" y="0" width="180.00000000000034" height="822.6232291071166" fill="rgba(255,255,255,0.01)" stroke="rgba(255,255,255,0.01)" stroke-width="2" stroke-linecap="round" stroke-linejoin="round" stroke-dasharray="3 3"/></g><g transform="translate(707.0000000000002, 132.37677089288354) rotate(0, 43, 0)" width="86" height="19"><text text-decoration="none" x="0.5" fill="rgb(255, 255, 255)" font-size="10pt" font-family="lt_regular"  y="17">Mobile&#160;</text><text text-decoration="none" x="42.5" fill="rgb(255, 255, 255)" font-size="10pt" font-family="lt_regular"  y="17">System</text><text text-decoration="none" x="85.5" fill="#4b4b4b" font-size="10pt" font-family="noto_regular"  y="17"></text></g></g><g id="kmsSiKjWXmH"><g transform="translate(939.9999999999998 127.37677089288354)"><rect x="0" y="0" width="180.00000000000017" height="29" fill="rgb(8,65,95)" stroke="#08415F" stroke-width="2" stroke-linecap="round" stroke-linejoin="round" stroke-dasharray="0 0"/><path d="M 90.00000000000009,29 L 90.00000000000009,822.6232291071166" fill="rgb(8,65,95)" stroke="#08415F" stroke-width="2" stroke-linecap="round" stroke-linejoin="round" stroke-dasharray="3 3"/><rect x="0" y="0" width="180.00000000000017" height="822.6232291071166" fill="rgba(255,255,255,0.01)" stroke="rgba(255,255,255,0.01)" stroke-width="2" stroke-linecap="round" stroke-linejoin="round" stroke-dasharray="3 3"/></g><g transform="translate(1002.5, 132.37677089288354) rotate(0, 27.5, 0)" width="55" height="19"><text text-decoration="none" x="1" fill="rgb(255, 255, 255)" font-size="10pt" font-family="lt_regular"  y="17">Database</text><text text-decoration="none" x="54" fill="#4b4b4b" font-size="10pt" font-family="noto_regular"  y="17"></text></g></g><g id="I2IVSFZws4Y"><g transform="translate(390.00000000000006 161.99999999999994)"><ellipse cx="35.000000000000036" cy="6.562500000000007" rx="8.750000000000009" ry="6.562500000000007" fill="rgb(255,255,255)" stroke="#4b4b4b" stroke-width="2" stroke-linecap="round" stroke-linejoin="round"/><path d="M 35.000000000000036,13.125000000000014 L 35.000000000000036,31.500000000000032 L 52.50000000000006,52.50000000000006 M 35.000000000000036,31.500000000000032 L 17.500000000000018,52.50000000000006 M 19.25000000000002,19.68750000000002 L 50.75000000000006,19.68750000000002" fill="none" stroke="#4b4b4b" stroke-width="2" stroke-linecap="round" stroke-linejoin="round"/><path d="M 35.000000000000036,81.50000000000006 L 35.000000000000036,777.9999999999998" fill="none" stroke="#4b4b4b" stroke-width="2" stroke-linecap="round" stroke-linejoin="round" stroke-dasharray="3 3"/><rect x="0" y="0" width="70.00000000000007" height="777.9999999999998" fill="rgba(255,255,255,0.01)" stroke="rgba(255,255,255,0.01)" stroke-width="2" stroke-linecap="round" stroke-linejoin="round" stroke-dasharray="3 3"/></g><g transform="translate(411.5000000000001, 219.5) rotate(0, 13.5, 0)" width="27" height="19"><text text-decoration="none" x="0" fill="rgb(0, 0, 29)" font-size="10pt" font-family="lt_regular"  y="17">User</text><text text-decoration="none" x="28" fill="#4b4b4b" font-size="10pt" font-family="noto_regular"  y="17"></text></g></g><g id="3DB4lDgDWx3"><g transform="translate(417.49999999999994 257.37677089288354)"><rect x="0" y="0" width="20" height="592.6232291071163" fill="rgb(242,175,29)" stroke="#F2AF1D" stroke-width="2" stroke-linecap="round" stroke-linejoin="round" stroke-dasharray="0 0"/></g></g><g id="rUVLpPeadmQ"><g transform="translate(740 257.37677089288354)"><rect x="0" y="0" width="20" height="292.6232291071165" fill="rgb(242,175,29)" stroke="#F2AF1D" stroke-width="2" stroke-linecap="round" stroke-linejoin="round" stroke-dasharray="0 0"/></g></g><g id="nxeSZhtwma0"><g transform="translate(740.0000000000002 597.3767708928838)"><rect x="0" y="0" width="20" height="102.62322910711623" fill="rgb(242,175,29)" stroke="#F2AF1D" stroke-width="2" stroke-linecap="round" stroke-linejoin="round" stroke-dasharray="0 0"/></g><g transform="translate(750.0000000000002, 639.6883854464419) rotate(0, 0, 9)" width="0" height="18"><text text-decoration="none" x="0" fill="#4b4b4b" font-size="10pt" font-family="noto_regular"  y="17"></text></g></g><g id="drf5KEMAzpE"><g transform="translate(1020.0000000000002 519.9999999999999)"><rect x="0" y="0" width="20" height="240.00000000000023" fill="rgb(242,175,29)" stroke="#F2AF1D" stroke-width="2" stroke-linecap="round" stroke-linejoin="round" stroke-dasharray="0 0"/></g></g><g id="5dCkpqjtTJG"><g transform="translate(1020.0000000000002 800)"><rect x="0" y="0" width="20" height="49.99999999999997" fill="rgb(242,175,29)" stroke="#F2AF1D" stroke-width="2" stroke-linecap="round" stroke-linejoin="round" stroke-dasharray="0 0"/></g></g><g id="AHitYO03ew8"><mask id="94148" x="746" y="676" width="288" height="28" maskUnits="userSpaceOnUse"><rect x="746" y="676" width="288" height="28" fill="white" /><rect x="816" y="677.5" width="148" height="25" fill="black" /></mask><g mask="url(#94148)"><path d="M 760,690 L 890,690 Q 900,689.9999999999999 900.0000000000002,689.9999999999999 L 1020,690" fill="none" stroke="#9A9A9A" stroke-width="2" stroke-linecap="round" stroke-linejoin="round"/><path d="M 1020,690 L 1011.304347826087,684.25 L 1011.304347826087,695.75 Z" fill="rgb(154,154,154)" stroke="#9A9A9A" stroke-width="2" stroke-linecap="round" stroke-linejoin="round"/></g><g transform="translate(819, 680.5)" width="142" height="19"><text text-decoration="none" x="1.5" fill="rgb(84, 84, 84)" font-size="10pt" font-family="lt_regular"  y="17">Add&#160;</text><text text-decoration="none" x="27.5" fill="rgb(84, 84, 84)" font-size="10pt" font-family="lt_regular"  y="17">user&#160;</text><text text-decoration="none" x="55.5" fill="rgb(84, 84, 84)" font-size="10pt" font-family="lt_regular"  y="17">Message&#160;</text><text text-decoration="none" x="109.5" fill="rgb(84, 84, 84)" font-size="10pt" font-family="lt_regular"  y="17">in&#160;</text><text text-decoration="none" x="122.5" fill="rgb(84, 84, 84)" font-size="10pt" font-family="lt_regular"  y="17">DB</text><text text-decoration="none" x="140.5" fill="#4b4b4b" font-size="10pt" font-family="noto_regular"  y="17"></text></g></g><g id="coUakeMotEI"><mask id="f293e" x="733" y="812" width="301" height="32" maskUnits="userSpaceOnUse"><rect x="733" y="812" width="301" height="32" fill="white" /><rect x="829.5" y="815.5" width="108" height="25" fill="black" /></mask><g mask="url(#f293e)"><path d="M 1020,830 L 747,826" fill="none" stroke="#9A9A9A" stroke-width="2" stroke-linecap="round" stroke-linejoin="round"/><path d="M 747,826 L 755.610478883859,831.8767780390533 L 755.7789589685461,820.3780122591504 Z" fill="rgb(154,154,154)" stroke="#9A9A9A" stroke-width="2" stroke-linecap="round" stroke-linejoin="round"/></g><g transform="translate(832.5, 818.5)" width="102" height="19"><text text-decoration="none" x="1" fill="rgb(84, 84, 84)" font-size="10pt" font-family="lt_regular"  y="17">Message&#160;</text><text text-decoration="none" x="55" fill="rgb(84, 84, 84)" font-size="10pt" font-family="lt_regular"  y="17">is&#160;</text><text text-decoration="none" x="67" fill="rgb(84, 84, 84)" font-size="10pt" font-family="lt_regular"  y="17">added</text><text text-decoration="none" x="101" fill="#4b4b4b" font-size="10pt" font-family="noto_regular"  y="17"></text></g></g><g id="sGQa6EM1j5E"><mask id="87d0b" x="424" y="812" width="337" height="29" maskUnits="userSpaceOnUse"><rect x="424" y="812" width="337" height="29" fill="white" /><rect x="544" y="814" width="97" height="25" fill="black" /></mask><g mask="url(#87d0b)"><path d="M 747,826 L 438,827" fill="none" stroke="#9A9A9A" stroke-width="2" stroke-linecap="round" stroke-linejoin="round"/><path d="M 438,827 L 446.71965207310427,832.7135395731269 L 446.6714998197425,821.2136403839819 Z" fill="rgb(154,154,154)" stroke="#9A9A9A" stroke-width="2" stroke-linecap="round" stroke-linejoin="round"/></g><g transform="translate(547, 817)" width="91" height="19"><text text-decoration="none" x="0" fill="rgb(84, 84, 84)" font-size="10pt" font-family="lt_regular"  y="17">Message&#160;</text><text text-decoration="none" x="54" fill="rgb(84, 84, 84)" font-size="10pt" font-family="lt_regular"  y="17">is&#160;</text><text text-decoration="none" x="66" fill="rgb(84, 84, 84)" font-size="10pt" font-family="lt_regular"  y="17">sent</text><text text-decoration="none" x="91" fill="#4b4b4b" font-size="10pt" font-family="noto_regular"  y="17"></text></g></g><g id="QQdvmXPGQLC"><mask id="0f968" x="423" y="333" width="331" height="28" maskUnits="userSpaceOnUse"><rect x="423" y="333" width="331" height="28" fill="white" /><rect x="542" y="334.5" width="93" height="25" fill="black" />undefined</mask><g mask="url(#0f968)"><path d="M 437,347 L 740,347" fill="none" stroke="#9A9A9A" stroke-width="2" stroke-linecap="round" stroke-linejoin="round"/><path d="M 740,347 L 731.304347826087,341.25 L 731.304347826087,352.75 Z" fill="rgb(154,154,154)" stroke="#9A9A9A" stroke-width="2" stroke-linecap="round" stroke-linejoin="round"/></g><g transform="translate(545, 337.5)" width="87" height="19"><text text-decoration="none" x="1" fill="rgb(84, 84, 84)" font-size="10pt" font-family="lt_regular"  y="17">Select&#160;</text><text text-decoration="none" x="39" fill="rgb(84, 84, 84)" font-size="10pt" font-family="lt_regular"  y="17">Purpose</text><text text-decoration="none" x="86" fill="#4b4b4b" font-size="10pt" font-family="noto_regular"  y="17"></text></g>undefined</g><g id="8mFbC2JT2Tk"><mask id="d98f5" x="423" y="373" width="331" height="28" maskUnits="userSpaceOnUse"><rect x="423" y="373" width="331" height="28" fill="white" /><rect x="552" y="374.5" width="73" height="25" fill="black" /></mask><g mask="url(#d98f5)"><path d="M 437,387 L 740,387" fill="none" stroke="#9A9A9A" stroke-width="2" stroke-linecap="round" stroke-linejoin="round"/><path d="M 740,387 L 731.304347826087,381.25 L 731.304347826087,392.75 Z" fill="rgb(154,154,154)" stroke="#9A9A9A" stroke-width="2" stroke-linecap="round" stroke-linejoin="round"/></g><g transform="translate(555, 377.5)" width="67" height="19"><text text-decoration="none" x="1" fill="rgb(84, 84, 84)" font-size="10pt" font-family="lt_regular"  y="17">Select&#160;</text><text text-decoration="none" x="39" fill="rgb(84, 84, 84)" font-size="10pt" font-family="lt_regular"  y="17">Chat</text><text text-decoration="none" x="66" fill="#4b4b4b" font-size="10pt" font-family="noto_regular"  y="17"></text></g></g><g id="mb5IQN3fQQN"><mask id="b06b7" x="423" y="433" width="331" height="28" maskUnits="userSpaceOnUse"><rect x="423" y="433" width="331" height="28" fill="white" /><rect x="547.5" y="434.5" width="82" height="25" fill="black" /></mask><g mask="url(#b06b7)"><path d="M 437,447 L 740,447" fill="none" stroke="#9A9A9A" stroke-width="2" stroke-linecap="round" stroke-linejoin="round"/><path d="M 740,447 L 731.304347826087,441.25 L 731.304347826087,452.75 Z" fill="rgb(154,154,154)" stroke="#9A9A9A" stroke-width="2" stroke-linecap="round" stroke-linejoin="round"/></g><g transform="translate(550.5, 437.5)" width="76" height="19"><text text-decoration="none" x="1" fill="rgb(84, 84, 84)" font-size="10pt" font-family="lt_regular"  y="17">Select&#160;</text><text text-decoration="none" x="39" fill="rgb(84, 84, 84)" font-size="10pt" font-family="lt_regular"  y="17">Friend</text><text text-decoration="none" x="75" fill="#4b4b4b" font-size="10pt" font-family="noto_regular"  y="17"></text></g></g><g id="YwfxvXN5Lpb"><mask id="6b2d4" x="423" y="473" width="331" height="28" maskUnits="userSpaceOnUse"><rect x="423" y="473" width="331" height="28" fill="white" /><rect x="511" y="474.5" width="155" height="25" fill="black" /></mask><g mask="url(#6b2d4)"><path d="M 437,487 L 740,487" fill="none" stroke="#9A9A9A" stroke-width="2" stroke-linecap="round" stroke-linejoin="round"/><path d="M 740,487 L 731.304347826087,481.25 L 731.304347826087,492.75 Z" fill="rgb(154,154,154)" stroke="#9A9A9A" stroke-width="2" stroke-linecap="round" stroke-linejoin="round"/></g><g transform="translate(514, 477.5)" width="149" height="19"><text text-decoration="none" x="1" fill="rgb(84, 84, 84)" font-size="10pt" font-family="lt_regular"  y="17">Type&#160;</text><text text-decoration="none" x="33" fill="rgb(84, 84, 84)" font-size="10pt" font-family="lt_regular"  y="17">message&#160;</text><text text-decoration="none" x="86" fill="rgb(84, 84, 84)" font-size="10pt" font-family="lt_regular"  y="17">and&#160;</text><text text-decoration="none" x="109" fill="rgb(84, 84, 84)" font-size="10pt" font-family="lt_regular"  y="17">submit</text><text text-decoration="none" x="148" fill="#4b4b4b" font-size="10pt" font-family="noto_regular"  y="17"></text></g></g><g id="XqkzdIpQPwk"><mask id="bca04" x="746" y="613" width="288" height="31" maskUnits="userSpaceOnUse"><rect x="746" y="613" width="288" height="31" fill="white" /><rect x="832" y="616.1881124541193" width="116" height="25" fill="black" /></mask><g mask="url(#bca04)"><path d="M 760,627 L 880.0000419986427,627.3477886382301 Q 881.6232642884171,627.3524931221644 890,629 Q 899.0000000000003,629.9999999999999 900.0000000000002,629.9999999999999 L 1020,630" fill="none" stroke="#9A9A9A" stroke-width="2" stroke-linecap="round" stroke-linejoin="round"/><path d="M 1020,630 L 1011.304347826087,624.25 L 1011.304347826087,635.75 Z" fill="rgb(154,154,154)" stroke="#9A9A9A" stroke-width="2" stroke-linecap="round" stroke-linejoin="round"/></g><g transform="translate(835, 619.1881124541193)" width="110" height="19"><text text-decoration="none" x="0.5" fill="rgb(84, 84, 84)" font-size="10pt" font-family="lt_regular"  y="17">Send&#160;</text><text text-decoration="none" x="31.5" fill="rgb(84, 84, 84)" font-size="10pt" font-family="lt_regular"  y="17">user&#160;</text><text text-decoration="none" x="59.5" fill="rgb(84, 84, 84)" font-size="10pt" font-family="lt_regular"  y="17">message</text><text text-decoration="none" x="109.5" fill="#4b4b4b" font-size="10pt" font-family="noto_regular"  y="17"></text></g></g></svg>